# xmcd
# 
# Track frame offsets:
#     150
#     20932
#     38260
#     56483
#     74920
#     98942
#     115558
#     138638
#     158099
#     175558
#     195489
#     212952
#     232570
# 
# Disc length: 3334
# 
# Revision: 1
# Processed by: cddbd v1.5.2PL0 Copyright (c) Steve Scherf et al.
# Submitted via: fre:ac v1.0.31
# 
DISCID=ab0d040d
DTITLE=Ilse De Lange - The great escape
DYEAR=2006
DGENRE=
TTITLE0=Ilse DeLange - Reach For The Light
TTITLE1=The Lonely One
TTITLE2=The Great Escape
TTITLE3=Ilse DeLange - Was It Love
TTITLE4=Ilse DeLange - I Always Will
TTITLE5=Ilse DeLange - Miss Politician
TTITLE6=Ilse DeLange - Don't You Let Go Of Me
TTITLE7=Ilse DeLange - Carry Hope
TTITLE8=Ilse DeLange - Waterfall
TTITLE9=Ilse DeLange - Far Away
TTITLE10=I Love You
TTITLE11=Ilse DeLange - The Valley
TTITLE12=Ilse DeLange - When
EXTD=
EXTT0=
EXTT1=
EXTT2=
EXTT3=
EXTT4=
EXTT5=
EXTT6=
EXTT7=
EXTT8=
EXTT9=
EXTT10=
EXTT11=
EXTT12=
PLAYORDER=
